:SAMPLES-PER-SECOND 30
:FULLY-SPECIFIED
:DEGREES
453
root  -0.54375 36.8316 7.40431 152.906 -87.0583 -165.858
RightUpLeg  -14.9908 -9.59533 -28.1709
RightLeg  36.9251 -5.68938 -4.82764
RightFoot  31.3208 -4.74857 12.686
RightToes  -6.40286e-010 0 -3.6325e-017
Spine  18.0597 4.17737 -3.44395
Spine1  3.21645 3.30615 -1.6859
HEad  -12.176 -3.81362 2.25388
LeftShoulder1  1.31795 -3.14655 -12.7713
LeftArm  -7.77497 33.1578 -37.2281
LeftForeArm  138.01 -77.7321 -128.646
LeftHand  0.74756 7.33682 41.5082
RightShoulder  1.13947 1.06393 18.5027
RightArm  -1.03012 -32.094 46.4852
RightForeArm  41.2529 49.5072 10.0149
RightHand  -1.34416 0.115771 -28.0008
LeftUpLeg  -3.61778 3.0935 13.8312
LeftLeg  40.1757 3.22044 3.32993
LeftFoot  -19.5912 -1.11564 -16.9836
LeftToes  -2.09187e-010 -4.93792e-011 -8.21189e-011
454
root  -0.647802 37.0753 7.03538 148.083 -85.9121 -161
RightUpLeg  -13.6682 -8.8602 -27.0742
RightLeg  34.8673 -3.65554 -2.98113
RightFoot  30.2403 -4.97805 13.6303
RightToes  -6.40286e-010 0 -3.6325e-017
Spine  17.4181 3.5455 -5.27841
Spine1  3.06788 1.83619 1.11402
HEad  -10.1542 -0.784668 0.891778
LeftShoulder1  1.43198 -3.63806 -13.0329
LeftArm  -3.56445 32.6835 -38.5593
LeftForeArm  131.066 -79.6098 -115.569
LeftHand  0.401921 6.43889 40.8298
RightShoulder  1.10465 0.959341 18.293
RightArm  -0.647412 -31.1677 46.6975
RightForeArm  37.2369 46.5806 9.16857
RightHand  -1.3025 0.0820871 -27.3241
LeftUpLeg  -2.11365 2.95676 15.2445
LeftLeg  37.9195 3.77446 3.55453
LeftFoot  -18.4587 -0.9961 -17.6648
LeftToes  -2.09187e-010 -4.93792e-011 -8.21189e-011
455
root  -0.787399 37.3581 6.61448 144.354 -85.2073 -156.652
RightUpLeg  -11.9274 -7.99494 -26.0825
RightLeg  31.5736 -1.65365 -1.33518
RightFoot  29.9 -4.89502 13.5257
RightToes  -6.40286e-010 0 -3.6325e-017
Spine  16.5893 2.75707 -6.70279
Spine1  2.2903 0.460037 3.67523
HEad  -7.66097 1.79917 -0.254955
LeftShoulder1  1.50202 -3.80534 -13.5848
LeftArm  -0.0553568 31.9385 -40.2719
LeftForeArm  105.58 -80.8333 -83.3169
LeftHand  0.158728 5.78129 40.5781
RightShoulder  1.07564 0.86836 18.1337
RightArm  0.183344 -30.7519 46.5789
RightForeArm  34.1852 44.0527 8.48902
RightHand  -1.25913 0.0635878 -26.5354
LeftUpLeg  -1.01854 2.61591 16.4115
LeftLeg  35.0815 4.42494 3.72177
LeftFoot  -17.0677 -0.825263 -18.3977
LeftToes  -2.09187e-010 -4.93792e-011 -8.21189e-011
456
root  -0.965123 37.6346 6.11541 142.033 -84.6716 -153.279
RightUpLeg  -10.029 -6.88772 -25.0082
RightLeg  27.7489 0.489214 0.0609192
RightFoot  27.7964 -5.0919 14.8375
RightToes  -6.40286e-010 0 -3.6325e-017
Spine  15.4399 1.9908 -7.62609
Spine1  1.43208 -0.617876 5.76676
HEad  -5.09121 3.6741 -1.11763
LeftShoulder1  1.57161 -3.8804 -14.389
LeftArm  2.78926 31.0027 -41.8891
LeftForeArm  76.5328 -78.229 -48.2018
LeftHand  0.00955913 5.37285 40.4634
RightShoulder  1.03422 0.704918 18.1071
RightArm  0.891661 -30.7587 46.3901
RightForeArm  32.8502 41.988 7.90523
RightHand  -1.25546 0.216757 -25.7664
LeftUpLeg  -0.188697 2.22438 17.5294
LeftLeg  31.916 5.17586 3.84088
LeftFoot  -15.5455 -0.620999 -19.2832
LeftToes  -2.09187e-010 -4.93792e-011 -8.21189e-011
457
root  -1.15768 37.8494 5.51294 140.598 -84.3298 -150.825
RightUpLeg  -7.79861 -5.84358 -23.9958
RightLeg  23.7977 1.89568 0.709825
RightFoot  23.6679 -5.71197 18.5383
RightToes  -6.40286e-010 0 -3.6325e-017
Spine  14.2545 1.37014 -8.25509
Spine1  0.842608 -1.3961 7.36369
HEad  -2.83753 4.71654 -1.7799
LeftShoulder1  1.67284 -4.06339 -15.2911
LeftArm  4.99199 30.0168 -43.1421
LeftForeArm  61.8919 -72.7861 -29.2627
LeftHand  -0.126648 4.99869 40.4653
RightShoulder  0.983564 0.503528 18.0805
RightArm  1.0251 -31.0329 46.5488
RightForeArm  31.8471 40.2117 7.42481
RightHand  -1.25902 0.391669 -25.0825
LeftUpLeg  0.669804 1.8176 18.6971
LeftLeg  28.7252 5.83066 3.81309
LeftFoot  -13.9492 -0.383057 -20.2896
LeftToes  -2.09187e-010 -4.93792e-011 -8.21189e-011
458
root  -1.33841 37.9892 4.82919 138.859 -84.1211 -148.357
RightUpLeg  -5.20358 -5.8421 -23.0891
RightLeg  19.7707 2.80213 0.922128
RightFoot  19.4263 -6.29151 23.0851
RightToes  -6.40286e-010 0 -3.6325e-017
Spine  13.311 0.883001 -8.56747
Spine1  0.553359 -1.94345 8.48622
HEad  -1.17892 5.11507 -2.38979
LeftShoulder1  1.7733 -4.25651 -16.1063
LeftArm  6.51907 29.077 -44.0698
LeftForeArm  54.8918 -66.5253 -20.0351
LeftHand  -0.235825 4.69999 40.5771
RightShoulder  0.93506 0.324532 17.9565
RightArm  0.920428 -31.332 47.1123
RightForeArm  29.8306 38.5545 7.06638
RightHand  -1.2255 0.359888 -24.5664
LeftUpLeg  1.72169 1.41401 20.0198
LeftLeg  25.5994 6.28144 3.61891
LeftFoot  -12.3649 -0.11955 -21.3959
LeftToes  -2.09187e-010 -4.93792e-011 -8.21189e-011
459
root  -1.49946 38.0881 4.11122 136.24 -83.6054 -145.095
RightUpLeg  -2.81637 -7.4446 -21.8444
RightLeg  15.9552 4.46889 1.15142
RightFoot  16.1592 -6.37455 26.0918
RightToes  -6.40286e-010 0 -3.6325e-017
Spine  12.4628 0.509209 -8.14634
Spine1  0.467856 -2.21776 9.06107
HEad  -0.130099 5.16167 -3.00405
LeftShoulder1  1.83027 -4.25735 -16.9037
LeftArm  7.33866 28.2764 -44.664
LeftForeArm  50.4003 -60.4404 -15.0517
LeftHand  -0.307521 4.50177 40.5019
RightShoulder  0.894152 0.16992 17.8694
RightArm  1.49968 -31.2649 47.6681
RightForeArm  27.1403 36.7992 6.73953
RightHand  -1.17411 0.18975 -24.2592
LeftUpLeg  2.9215 1.17772 21.7625
LeftLeg  22.425 6.6873 3.34402
LeftFoot  -10.7874 0.174749 -22.5922
LeftToes  -2.09187e-010 -4.93792e-011 -8.21189e-011
460
root  -1.63605 38.1797 3.38362 133.7 -82.4477 -141.786
RightUpLeg  -1.23957 -9.99937 -19.7363
RightLeg  12.822 7.07155 1.16138
RightFoot  13.4982 -5.86352 26.6037
RightToes  -6.40286e-010 0 -3.6325e-017
Spine  11.5085 0.295181 -6.90253
Spine1  0.509398 -2.19039 9.24921
HEad  0.523269 5.03806 -3.51412
LeftShoulder1  1.8445 -4.05809 -17.7802
LeftArm  7.39541 27.7725 -45.0086
LeftForeArm  46.4491 -54.8647 -12.0455
LeftHand  -0.370418 4.32398 40.3047
RightShoulder  0.868694 0.0581602 17.9268
RightArm  3.24792 -30.4784 47.928
RightForeArm  24.6364 34.6052 6.30332
RightHand  -1.12181 0.0446632 -23.8036
LeftUpLeg  4.23524 1.88041 24.1015
LeftLeg  19.0616 6.67481 3.13928
LeftFoot  -9.03602 0.537966 -23.7537
LeftToes  -2.09187e-010 -4.93792e-011 -8.21189e-011
461
root  -1.73342 38.2653 2.67133 131.796 -80.976 -139.127
RightUpLeg  -0.330386 -11.2193 -17.0948
RightLeg  10.4518 8.20678 0.968442
RightFoot  11.2251 -5.09014 25.5172
RightToes  -6.40286e-010 0 -3.6325e-017
Spine  10.5956 0.1835 -5.40332
Spine1  0.666915 -2.07484 9.51342
HEad  1.01951 4.85422 -3.78546
LeftShoulder1  1.83788 -3.83533 -18.4795
LeftArm  6.69044 27.6765 -45.5563
LeftForeArm  41.9389 -49.567 -9.98175
LeftHand  -0.416719 4.19769 40.3615
RightShoulder  0.868633 0.0494875 17.9902
RightArm  5.71391 -28.9132 48.1264
RightForeArm  22.3973 31.7468 5.71155
RightHand  -1.03847 -0.104015 -22.6695
LeftUpLeg  5.66413 4.96462 26.7898
LeftLeg  15.4917 4.72309 3.34109
LeftFoot  -6.99889 0.991427 -24.7039
LeftToes  -2.09187e-010 -4.93792e-011 -8.21189e-011
